# xmcd CD database file
#
# Track frame offsets:
#	150
#	17897
#	35647
#	49630
#
# Disc length: 846 seconds
#
# Revision: 0
# Processed by: cddbd v1.5PL3 Copyright (c) Steve Scherf et al.
# Submitted via: CDex 1.51
#
DISCID=2c034c04
DTITLE=三姉妹［スリーシスターズ］ - 有言実行三姉妹　シュシュトリアン
DYEAR=1993
DGENRE=Vocal
TTITLE0=思いたったが吉日！
TTITLE1=Sweet Dream
TTITLE2=思いたったが吉日！ (カラオケ)
TTITLE3=Sweet Dream (カラオケ)
EXTD=YEAR: 1993
EXTT0=
EXTT1=
EXTT2=
EXTT3=
PLAYORDER=
